Coordinates
version=1
nRows=26
nColumns=24
inDegrees=yes

Units are S.I. units (second, meters, Newtons, ...)
Angles are in degrees.

endheader
time	pelvis_tilt	pelvis_list	pelvis_rotation	pelvis_tx	pelvis_ty	pelvis_tz	hip_flexion_r	hip_adduction_r	hip_rotation_r	knee_angle_r	ankle_angle_r	subtalar_angle_r	mtp_angle_r	hip_flexion_l	hip_adduction_l	hip_rotation_l	knee_angle_l	ankle_angle_l	subtalar_angle_l	mtp_angle_l	lumbar_extension	lumbar_bending	lumbar_rotation
      0.55000000	      0.55307026	      6.33992562	     -1.73302629	     -0.82821545	      1.05551649	      0.32420564	     21.24316737	     -3.02552692	     -8.38358163	      0.97108782	     -1.34891177	     -1.69728177	      0.06649691	    -15.88481870	     11.55899099	      1.43522960	     -2.73420261	      4.89957059	     -5.80595034	      0.11141745	      2.94759910	     -4.31862187	     -1.26485328
      0.55416667	      0.55901652	      6.31708436	     -1.85385990	     -0.82255864	      1.05513265	      0.32444706	     21.16265510	     -2.88436813	     -8.23004081	      0.85235835	     -1.30517712	     -1.44411133	      0.10911464	    -16.01485737	     11.55825425	      1.30310752	     -3.11571535	      4.94380687	     -5.84469705	      0.12638834	      2.92707739	     -4.22544765	     -1.40420567
      0.55833333	      0.54765890	      6.31681228	     -1.88281969	     -0.81692088	      1.05478528	      0.32455525	     21.10247455	     -2.80391827	     -8.17594275	      0.65735246	     -1.31149506	     -1.40902708	      0.11881472	    -16.11735179	     11.55384989	      1.34146225	     -3.52792117	      4.91204371	     -5.83317972	      0.13068471	      2.98001128	     -4.21045679	     -1.41595662
      0.56250000	      0.54107312	      6.29429861	     -1.97534609	     -0.81118177	      1.05444445	      0.32474652	     21.03859983	     -2.68383109	     -8.00186496	      0.41306048	     -1.31071244	     -1.24881959	      0.17109243	    -16.20773869	     11.54289684	      1.22789775	     -3.96402367	      4.88702638	     -5.74205353	      0.15825597	      2.99228660	     -4.17032308	     -1.48619389
      0.56666667	      0.53701017	      6.27630035	     -1.99359810	     -0.80543070	      1.05416732	      0.32480030	     20.96460114	     -2.60399894	     -7.91464063	      0.12248228	     -1.34054402	     -1.23185966	      0.18086960	    -16.29192202	     11.51626861	      1.26180850	     -4.43853482	      4.85339519	     -5.72623986	      0.16427589	      3.05033159	     -4.13469123	     -1.49251985
      0.57083333	      0.53479696	      6.25794188	     -2.01348475	     -0.79967143	      1.05392152	      0.32484863	     20.88863951	     -2.53088305	     -7.78487165	     -0.20553843	     -1.39406310	     -1.20634266	      0.19181352	    -16.35392332	     11.48843011	      1.26110726	     -4.95505438	      4.80862755	     -5.70175230	      0.17171268	      3.09910344	     -4.07883232	     -1.50461163
      0.57500000	      0.55210281	      6.21511994	     -2.21699413	     -0.79379230	      1.05363658	      0.32524886	     20.80180268	     -2.36153359	     -7.35335035	     -0.53968271	     -1.63278457	     -1.25584641	      0.28703981	    -16.41454542	     11.47425533	      0.87218443	     -5.47365413	      4.71121491	     -5.34668524	      0.25072309	      3.14846097	     -4.05260296	     -1.54010598
      0.57916667	      0.55189479	      6.19074341	     -2.20947320	     -0.78797386	      1.05347214	      0.32522662	     20.71124114	     -2.30625793	     -7.21546248	     -0.90333728	     -1.69858659	     -1.26393729	      0.29964127	    -16.44274109	     11.42927711	      0.87837451	     -6.07355591	      4.66630432	     -5.31760662	      0.26212291	      3.17852113	     -3.96728075	     -1.54791804
      0.58333333	      0.56114643	      6.16758342	     -2.22591388	     -0.78214660	      1.05334686	      0.32525248	     20.61346654	     -2.24926068	     -7.03649953	     -1.28511130	     -1.82130137	     -1.27120386	      0.31406702	    -16.45541693	     11.38952256	      0.81800891	     -6.70984131	      4.58540910	     -5.25954100	      0.27654459	      3.20838883	     -3.87659538	     -1.56134729
      0.58750000	      0.57074226	      6.10082001	     -2.51078705	     -0.77614464	      1.05311291	      0.32587360	     20.52393438	     -2.03274698	     -6.42146953	     -1.64042223	     -2.43540829	     -1.61742561	      0.41741890	    -16.44402477	     11.35013725	      0.19793531	     -7.31781843	      4.33649033	     -4.62863331	      0.40083704	      3.28674196	     -3.83418184	     -1.56527489
      0.59166667	      0.56524651	      6.04856117	     -2.61424522	     -0.77023004	      1.05299846	      0.32630543	     20.41265991	     -1.89376551	     -5.92265051	     -1.97298281	     -2.85330318	     -2.26785299	      0.57139054	    -16.37449517	     11.26473650	     -0.25196398	     -8.06571135	      4.31204257	     -3.98724344	      0.60535822	      3.24685799	     -3.69069809	     -1.51726280
      0.59583333	      0.57972460	      5.97953160	     -2.69430063	     -0.76425292	      1.05297130	      0.32658039	     20.27334963	     -1.76785999	     -5.54255592	     -2.31168419	     -3.22437183	     -2.49151647	      0.68873469	    -16.32393199	     11.16285209	     -0.56943089	     -8.81445940	      4.14393418	     -3.67385755	      0.76661391	      3.28107615	     -3.62107331	     -1.48962395
      0.60000000	      0.56264140	      5.89413959	     -2.68485430	     -0.75819028	      1.05300577	      0.32670937	     20.14807823	     -1.66140166	     -5.31403935	     -2.65238669	     -3.47507399	     -2.57953368	      0.73993518	    -16.21911451	     11.01702855	     -0.82229421	     -9.62622414	      3.96037951	     -3.51204804	      0.84245296	      3.24308127	     -3.50964429	     -1.49603433
      0.60416667	      0.61838138	      5.80286845	     -2.87282705	     -0.75220258	      1.05305596	      0.32738863	     19.94577049	     -1.46386178	     -4.60054144	     -2.94145641	     -4.10346020	     -3.53734779	      1.01998049	    -16.15110401	     10.88173027	     -1.42801623	    -10.46807335	      3.86326055	     -2.59797954	      1.31629425	      3.32613399	     -3.39037156	     -1.40251390
      0.60833333	      0.62618334	      5.72064850	     -2.89730929	     -0.74615449	      1.05317615	      0.32749957	     19.82216596	     -1.36895517	     -4.48053601	     -3.33377564	     -4.39043513	     -3.50658000	      1.06465174	    -16.01666674	     10.74388545	     -1.74609846	    -11.36257943	      3.54759752	     -2.49044304	      1.39112462	      3.27664374	     -3.28452888	     -1.42212097
      0.61250000	      0.69287681	      5.63582976	     -3.08736665	     -0.74011385	      1.05331105	      0.32784977	     19.66256707	     -1.22637839	     -4.15044352	     -3.73734903	     -4.93972444	     -3.67183901	      1.15674942	    -15.92702802	     10.64043400	     -2.23746423	    -12.24011349	      3.01515658	     -2.02279520	      1.57023835	      3.36128961	     -3.14266679	     -1.44315878
      0.61666667	      0.68712409	      5.52315153	     -3.05619319	     -0.73400528	      1.05352094	      0.32801470	     19.51534808	     -1.11609188	     -3.96834351	     -4.08704574	     -5.16678420	     -3.77589638	      1.19786374	    -15.71980139	     10.42646104	     -2.57927889	    -13.26218913	      2.75642665	     -1.85133295	      1.65616020	      3.27854702	     -3.02040614	     -1.45533116
      0.62083333	      0.76438891	      5.40955493	     -3.27994625	     -0.72798505	      1.05372282	      0.32891233	     19.28781873	     -0.89135748	     -3.18365110	     -4.38600346	     -5.87900225	     -5.00085041	      1.48029991	    -15.56143210	     10.22703820	     -3.32343713	    -14.29651827	      2.43707547	     -0.78586602	      2.33285502	      3.35631149	     -2.87980369	     -1.36362933
      0.62500000	      0.82017469	      5.30553371	     -3.35977570	     -0.72193931	      1.05400019	      0.32909054	     19.13869269	     -0.78221557	     -3.10303255	     -4.83570442	     -6.18609213	     -5.00155172	      1.55758448	    -15.36783831	     10.05210156	     -3.73736686	    -15.36117898	      1.83366812	     -0.52496155	      2.51522463	      3.33002022	     -2.72373209	     -1.37954136
      0.62916667	      0.87738812	      5.17863009	     -3.45131575	     -0.71586174	      1.05430715	      0.32940897	     18.96315124	     -0.63747506	     -2.87685381	     -5.24671661	     -6.50197478	     -5.16787111	      1.64505807	    -15.14609576	      9.83301822	     -4.20760498	    -16.47520725	      1.19781273	     -0.14549211	      2.74624982	      3.30790691	     -2.54322501	     -1.39799717
      0.63333333	      0.94060534	      5.01099073	     -3.50447158	     -0.70969842	      1.05468844	      0.32992373	     18.71958267	     -0.44341588	     -2.44303484	     -5.56182918	     -6.85610907	     -5.62484591	      1.80322062	    -14.90618362	      9.52090742	     -4.70409095	    -17.65313937	      0.55058945	      0.39413785	      3.21028511	      3.33601001	     -2.42258308	     -1.36186529
      0.63750000	      0.99384348	      4.86396156	     -3.57948499	     -0.70364752	      1.05504251	      0.33031982	     18.54055079	     -0.27923837	     -2.20675388	     -5.97446297	     -7.12004458	     -5.98290824	      1.95900279	    -14.61397138	      9.24427404	     -5.18896269	    -18.88649327	     -0.10730449	      0.82386257	      3.70031455	      3.30081327	     -2.22808215	     -1.34351316
      0.64166667	      1.05236485	      4.73118419	     -3.66998418	     -0.69767609	      1.05539262	      0.33060569	     18.39251921	     -0.14197880	     -2.10989950	     -6.45858845	     -7.27642541	     -6.16420614	      2.05075024	    -14.29713785	      8.99259307	     -5.61338330	    -20.16175798	     -0.74333993	      1.13046992	      4.00584396	      3.21543453	     -1.98946167	     -1.36278239
      0.64583333	      1.11341434	      4.56535201	     -3.72185572	     -0.69168416	      1.05578366	      0.33091971	     18.20677523	      0.02232071	     -1.96239290	     -6.89088724	     -7.40068810	     -6.32638180	      2.12649884	    -13.95262798	      8.67707703	     -6.03016864	    -21.48882038	     -1.49560044	      1.46368257	      4.27374023	      3.15960970	     -1.77051618	     -1.37755182
      0.65000000	      1.19376280	      4.35418624	     -3.85778631	     -0.68567382	      1.05619082	      0.33179772	     17.95130374	      0.30518969	     -1.43096762	     -7.22025636	     -7.74461723	     -7.35541379	      2.55655011	    -13.60192782	      8.26983172	     -6.64671964	    -22.87117978	     -2.18593283	      1.92135817	      5.98483183	      3.14443643	     -1.66147864	     -1.21248900
      0.65416667	      1.24387706	      4.15177783	     -3.81170287	     -0.67964979	      1.05664242	      0.33183357	     17.75401627	      0.45952789	     -1.50679613	     -7.64423429	     -7.70464122	     -7.11250971	      2.64613393	    -13.20090082	      7.89154502	     -6.85108321	    -24.26556556	     -3.14327533	      2.22384616	      6.31392733	      3.08544403	     -1.30892530	     -1.26145569
